# xmcd
#
# Track frame offsets: 
#        150
#        14387
#        30743
#        47701
#        70236
#        88428
#        99171
#        123480
#        147581
#        160169
#
# Disc length: 2319 seconds
#
# Revision: 0
# Processed by: cddbd v1.5.2PL0 Copyright (c) Steve Scherf et al.
# Submitted via: ExactAudioCopy v0.99pb3
#
DISCID=88090d0a
DTITLE=Big Joe Shelton - The Older I Get The Better I Was
DYEAR=2011
DGENRE=Blues
TTITLE0=Hole In Yo Soul
TTITLE1=The Older I Get The Better I Was
TTITLE2=What Else Can It Be
TTITLE3=Women And Whiskey
TTITLE4=Psychoanalyst Voodoo Queen
TTITLE5=Midnight In Mississippi
TTITLE6=Ashes To Ashes
TTITLE7=Thanks For The Love
TTITLE8=They Can't Be Satisfied
TTITLE9=Hard To Get Along
EXTD=
EXTT0=
EXTT1=
EXTT2=
EXTT3=
EXTT4=
EXTT5=
EXTT6=
EXTT7=
EXTT8=
EXTT9=
PLAYORDER=
